ffmpeg started on 2016-12-09 at 12:07:27
Report written to "Output/x264/results/ffmpeg/sintelplacebo4000k.log"
Command line:
Tools/ffmpeg/ffmpeg -benchmark -y -i Input/y4m/sintel.y4m -c:v libx264 -preset placebo -b:v 4000k -an Output/x264/encoded/sintelplacebo4000k.mkv
ffmpeg version N-82227-gdb23fde Copyright (c) 2000-2016 the FFmpeg developers
  built with gcc 5.4.0 (Ubuntu 5.4.0-6ubuntu1~16.04.2) 20160609
  configuration: --prefix=/home/jaroslav/ffmpeg_build --pkg-config-flags=--static --extra-cflags=-I/home/jaroslav/ffmpeg_build/include --extra-ldflags=-L/home/jaroslav/ffmpeg_build/lib --bindir=/home/jaroslav/bin --enable-gpl --enable-libass --enable-libfdk-aac --enable-libfreetype --enable-libmp3lame --enable-libopus --enable-libtheora --enable-libvorbis --enable-libvpx --enable-libx264 --enable-libx265 --enable-nvenc --enable-libmfx --enable-libxvid --enable-libgsm --enable-libopencore-amrnb --enable-version3 --enable-nonfree
  libavutil      55. 35.100 / 55. 35.100
  libavcodec     57. 66.101 / 57. 66.101
  libavformat    57. 57.100 / 57. 57.100
  libavdevice    57.  2.100 / 57.  2.100
  libavfilter     6. 66.100 /  6. 66.100
  libswscale      4.  3.100 /  4.  3.100
  libswresample   2.  4.100 /  2.  4.100
  libpostproc    54.  2.100 / 54.  2.100
Input #0, yuv4mpegpipe, from 'Input/y4m/sintel.y4m':
  Duration: 00:00:20.83, start: 0.000000, bitrate: 2057307 kb/s
    Stream #0:0: Video: rawvideo (I420 / 0x30323449), yuv420p(progressive), 4096x1744, SAR 1:1 DAR 256:109, 24 fps, 24 tbr, 24 tbn, 24 tbc
[libx264 @ 0x40231c0] using SAR=1/1
[libx264 @ 0x40231c0] DPB size (16 frames, 446464 mbs) > level limit (6 frames, 184320 mbs)
[libx264 @ 0x40231c0] using cpu capabilities: MMX2 SSE2Fast SSSE3 SSE4.2 AVX FMA3 AVX2 LZCNT BMI2
[libx264 @ 0x40231c0] profile High, level 5.2
[libx264 @ 0x40231c0] 264 - core 148 - H.264/MPEG-4 AVC codec - Copyleft 2003-2016 - http://www.videolan.org/x264.html - options: cabac=1 ref=16 deblock=1:0:0 analyse=0x3:0x133 me=tesa subme=11 psy=1 psy_rd=1.00:0.00 mixed_ref=1 me_range=24 chroma_me=1 trellis=2 8x8dct=1 cqm=0 deadzone=21,11 fast_pskip=0 chroma_qp_offset=-2 threads=6 lookahead_threads=1 sliced_threads=0 nr=0 decimate=1 interlaced=0 bluray_compat=0 constrained_intra=0 bframes=16 b_pyramid=2 b_adapt=2 b_bias=0 direct=3 weightb=1 open_gop=0 weightp=2 keyint=250 keyint_min=24 scenecut=40 intra_refresh=0 rc_lookahead=60 rc=abr mbtree=1 bitrate=4000 ratetol=1.0 qcomp=0.60 qpmin=0 qpmax=69 qpstep=4 ip_ratio=1.40 aq=1:1.00
Output #0, matroska, to 'Output/x264/encoded/sintelplacebo4000k.mkv':
  Metadata:
    encoder         : Lavf57.57.100
    Stream #0:0: Video: h264 (libx264) (H264 / 0x34363248), yuv420p, 4096x1744 [SAR 1:1 DAR 256:109], q=-1--1, 4000 kb/s, 24 fps, 1k tbn, 24 tbc
    Metadata:
      encoder         : Lavc57.66.101 libx264
    Side data:
      cpb: bitrate max/min/avg: 0/0/4000000 buffer size: 0 vbv_delay: -1
Stream mapping:
  Stream #0:0 -> #0:0 (rawvideo (native) -> h264 (libx264))
Press [q] to stop, [?] for help
frame=   10 fps=0.0 q=0.0 size=       0kB time=00:00:00.00 bitrate=N/A speed=   0x    frame=   18 fps= 17 q=0.0 size=       0kB time=00:00:00.00 bitrate=N/A speed=   0x    frame=   26 fps= 16 q=0.0 size=       0kB time=00:00:00.00 bitrate=N/A speed=   0x    frame=   34 fps= 16 q=0.0 size=       0kB time=00:00:00.00 bitrate=N/A speed=   0x    frame=   42 fps=7.3 q=0.0 size=       0kB time=00:00:00.00 bitrate=N/A speed=   0x    frame=   43 fps=4.6 q=0.0 size=       0kB time=00:00:00.00 bitrate=N/A speed=   0x    frame=   44 fps=3.7 q=0.0 size=       0kB time=00:00:00.00 bitrate=N/A speed=   0x    frame=   52 fps=4.2 q=0.0 size=       0kB time=00:00:00.00 bitrate=N/A speed=   0x    frame=   57 fps=4.4 q=0.0 size=       0kB time=00:00:00.00 bitrate=N/A speed=   0x    frame=   65 fps=4.8 q=0.0 size=       0kB time=00:00:00.00 bitrate=N/A speed=   0x    frame=   73 fps=5.2 q=0.0 size=       0kB time=00:00:00.00 bitrate=N/A speed=   0x    frame=   81 fps=5.6 q=0.0 size=       0kB time=00:00:00.00 bitrate=N/A speed=   0x    frame=   84 fps=1.2 q=0.0 size=       0kB time=00:00:00.00 bitrate=N/A speed=   0x    frame=   86 fps=1.3 q=0.0 size=       0kB time=00:00:00.00 bitrate=N/A speed=   0x    frame=   88 fps=1.2 q=33.0 size=       1kB time=-00:00:00.08 bitrate=N/A speed=N/A    frame=   90 fps=1.2 q=37.0 size=       1kB time=00:00:00.00 bitrate=5888.0kbits/s speed=1.34e-05x    frame=   92 fps=1.2 q=45.0 size=       1kB time=00:00:00.08 bitrate=  70.1kbits/s speed=0.00109x    frame=   93 fps=1.2 q=50.0 size=       1kB time=00:00:00.12 bitrate=  46.7kbits/s speed=0.00157x    frame=   94 fps=1.2 q=49.0 size=       1kB time=00:00:00.16 bitrate=  35.0kbits/s speed=0.00207x    frame=   96 fps=1.2 q=50.0 size=       1kB time=00:00:00.25 bitrate=  23.5kbits/s speed=0.00306x    frame=   97 fps=1.2 q=50.0 size=       1kB time=00:00:00.29 bitrate=  20.1kbits/s speed=0.0035x    frame=   98 fps=1.2 q=50.0 size=       1kB time=00:00:00.33 bitrate=  17.6kbits/s speed=0.00396x    frame=   99 fps=1.1 q=50.0 size=       1kB time=00:00:00.37 bitrate=  15.7kbits/s speed=0.00431x    frame=  100 fps=1.1 q=49.0 size=       1kB time=00:00:00.41 bitrate=  14.1kbits/s speed=0.00476x    frame=  101 fps=1.1 q=50.0 size=       1kB time=00:00:00.45 bitrate=  12.8kbits/s speed=0.0051x    frame=  103 fps=1.1 q=50.0 size=       1kB time=00:00:00.54 bitrate=  10.8kbits/s speed=0.00582x    frame=  104 fps=1.1 q=50.0 size=       1kB time=00:00:00.58 bitrate=  10.1kbits/s speed=0.00608x    frame=  105 fps=1.1 q=50.0 size=       1kB time=00:00:00.62 bitrate=   9.4kbits/s speed=0.00633x    frame=  106 fps=1.0 q=50.0 size=       1kB time=00:00:00.66 bitrate=   8.8kbits/s speed=0.00655x    frame=  107 fps=1.0 q=50.0 size=       1kB time=00:00:00.70 bitrate=   8.3kbits/s speed=0.00688x    frame=  108 fps=1.0 q=50.0 size=       1kB time=00:00:00.75 bitrate=   7.8kbits/s speed=0.00711x    frame=  109 fps=1.0 q=50.0 size=       1kB time=00:00:00.79 bitrate=   7.4kbits/s speed=0.00718x    frame=  110 fps=1.0 q=50.0 size=       1kB time=00:00:00.83 bitrate=   7.1kbits/s speed=0.00733x    frame=  111 fps=1.0 q=50.0 size=       1kB time=00:00:00.87 bitrate=   6.7kbits/s speed=0.00757x    frame=  112 fps=0.9 q=50.0 size=       1kB time=00:00:00.91 bitrate=   6.4kbits/s speed=0.00775x    frame=  113 fps=0.9 q=50.0 size=       1kB time=00:00:00.95 bitrate=   6.1kbits/s speed=0.00798x    frame=  114 fps=0.9 q=49.0 size=       1kB time=00:00:01.00 bitrate=   5.9kbits/s speed=0.00824x    frame=  115 fps=0.9 q=49.0 size=       1kB time=00:00:01.04 bitrate=   5.6kbits/s speed=0.00832x    frame=  116 fps=0.9 q=49.0 size=       1kB time=00:00:01.08 bitrate=   5.4kbits/s speed=0.00851x    frame=  117 fps=0.9 q=49.0 size=       1kB time=00:00:01.12 bitrate=   5.2kbits/s speed=0.00871x    frame=  118 fps=0.9 q=49.0 size=       1kB time=00:00:01.16 bitrate=   5.0kbits/s speed=0.00893x    frame=  119 fps=0.9 q=49.0 size=       1kB time=00:00:01.20 bitrate=   4.9kbits/s speed=0.00903x    frame=  120 fps=0.9 q=49.0 size=       1kB time=00:00:01.25 bitrate=   4.7kbits/s speed=0.00922x    frame=  121 fps=0.9 q=49.0 size=       1kB time=00:00:01.29 bitrate=   4.6kbits/s speed=0.00933x    frame=  122 fps=0.9 q=49.0 size=       1kB time=00:00:01.33 bitrate=   4.4kbits/s speed=0.00948x    frame=  123 fps=0.9 q=49.0 size=       1kB time=00:00:01.37 bitrate=   4.3kbits/s speed=0.00959x    frame=  124 fps=0.8 q=49.0 size=       1kB time=00:00:01.41 bitrate=   4.2kbits/s speed=0.00971x    frame=  125 fps=0.8 q=49.0 size=       1kB time=00:00:01.45 bitrate=   4.0kbits/s speed=0.00989x    frame=  126 fps=0.8 q=49.0 size=       1kB time=00:00:01.50 bitrate=   3.9kbits/s speed=0.0101x    frame=  127 fps=0.8 q=49.0 size=       1kB time=00:00:01.54 bitrate=   3.8kbits/s speed=0.0102x    frame=  128 fps=0.8 q=49.0 size=       1kB time=00:00:01.58 bitrate=   3.7kbits/s speed=0.0103x    frame=  129 fps=0.8 q=49.0 size=       1kB time=00:00:01.62 bitrate=   3.6kbits/s speed=0.0104x    frame=  130 fps=0.8 q=48.0 size=       1kB time=00:00:01.66 bitrate=   3.5kbits/s speed=0.0105x    frame=  131 fps=0.8 q=48.0 size=       1kB time=00:00:01.70 bitrate=   3.4kbits/s speed=0.0107x    frame=  132 fps=0.8 q=48.0 size=       1kB time=00:00:01.75 bitrate=   3.4kbits/s speed=0.0108x    frame=  133 fps=0.8 q=48.0 size=       1kB time=00:00:01.79 bitrate=   3.3kbits/s speed=0.0109x    frame=  134 fps=0.8 q=48.0 size=       1kB time=00:00:01.83 bitrate=   3.2kbits/s speed=0.011x    frame=  135 fps=0.8 q=48.0 size=       1kB time=00:00:01.87 bitrate=   3.1kbits/s speed=0.0111x    frame=  136 fps=0.8 q=48.0 size=       1kB time=00:00:01.91 bitrate=   3.1kbits/s speed=0.0112x    frame=  137 fps=0.8 q=48.0 size=       1kB time=00:00:01.95 bitrate=   3.0kbits/s speed=0.0113x    frame=  138 fps=0.8 q=48.0 size=       1kB time=00:00:02.00 bitrate=   2.9kbits/s speed=0.0114x    frame=  139 fps=0.8 q=48.0 size=       1kB time=00:00:02.04 bitrate=   2.9kbits/s speed=0.0115x    frame=  140 fps=0.8 q=48.0 size=       1kB time=00:00:02.08 bitrate=   2.8kbits/s speed=0.0115x    frame=  141 fps=0.8 q=48.0 size=       1kB time=00:00:02.12 bitrate=   2.8kbits/s speed=0.0116x    frame=  142 fps=0.8 q=48.0 size=       1kB time=00:00:02.16 bitrate=   2.7kbits/s speed=0.0116x    frame=  143 fps=0.8 q=48.0 size=       1kB time=00:00:02.20 bitrate=   2.7kbits/s speed=0.0116x    frame=  144 fps=0.7 q=48.0 size=       1kB time=00:00:02.25 bitrate=   2.6kbits/s speed=0.0116x    frame=  145 fps=0.7 q=48.0 size=       1kB time=00:00:02.29 bitrate=   2.6kbits/s speed=0.0118x    frame=  146 fps=0.7 q=48.0 size=       1kB time=00:00:02.33 bitrate=   2.5kbits/s speed=0.0119x    frame=  147 fps=0.7 q=48.0 size=       1kB time=00:00:02.37 bitrate=   2.5kbits/s speed=0.012x    frame=  148 fps=0.7 q=48.0 size=       1kB time=00:00:02.41 bitrate=   2.4kbits/s speed=0.012x    frame=  149 fps=0.7 q=48.0 size=       1kB time=00:00:02.45 bitrate=   2.4kbits/s speed=0.0119x    frame=  150 fps=0.7 q=48.0 size=       1kB time=00:00:02.50 bitrate=   2.4kbits/s speed=0.0121x    frame=  151 fps=0.7 q=48.0 size=       1kB time=00:00:02.54 bitrate=   2.3kbits/s speed=0.0122x    frame=  152 fps=0.7 q=48.0 size=       1kB time=00:00:02.58 bitrate=   2.3kbits/s speed=0.0122x    frame=  153 fps=0.7 q=48.0 size=       1kB time=00:00:02.62 bitrate=   2.2kbits/s speed=0.0123x    frame=  154 fps=0.7 q=48.0 size=       1kB time=00:00:02.66 bitrate=   2.2kbits/s speed=0.0121x    frame=  155 fps=0.7 q=48.0 size=       1kB time=00:00:02.70 bitrate=   2.2kbits/s speed=0.0122x    frame=  156 fps=0.7 q=48.0 size=       1kB time=00:00:02.75 bitrate=   2.1kbits/s speed=0.0123x    frame=  157 fps=0.7 q=48.0 size=       1kB time=00:00:02.79 bitrate=   2.1kbits/s speed=0.0124x    frame=  158 fps=0.7 q=48.0 size=       1kB time=00:00:02.83 bitrate=   2.1kbits/s speed=0.0125x    frame=  159 fps=0.7 q=48.0 size=       1kB time=00:00:02.87 bitrate=   2.0kbits/s speed=0.0126x    frame=  160 fps=0.7 q=48.0 size=       1kB time=00:00:02.91 bitrate=   2.0kbits/s speed=0.0124x    frame=  161 fps=0.7 q=48.0 size=       1kB time=00:00:02.95 bitrate=   2.0kbits/s speed=0.0125x    frame=  162 fps=0.7 q=48.0 size=       1kB time=00:00:03.00 bitrate=   2.0kbits/s speed=0.0126x    frame=  163 fps=0.7 q=48.0 size=       1kB time=00:00:03.04 bitrate=   1.9kbits/s speed=0.0127x    frame=  164 fps=0.7 q=47.0 size=       1kB time=00:00:03.08 bitrate=   1.9kbits/s speed=0.0128x    frame=  165 fps=0.7 q=47.0 size=       1kB time=00:00:03.12 bitrate=   1.9kbits/s speed=0.0129x    frame=  166 fps=0.7 q=47.0 size=       1kB time=00:00:03.16 bitrate=   1.9kbits/s speed=0.0128x    frame=  167 fps=0.7 q=47.0 size=       1kB time=00:00:03.20 bitrate=   1.8kbits/s speed=0.0127x    frame=  168 fps=0.7 q=47.0 size=       1kB time=00:00:03.25 bitrate=   1.8kbits/s speed=0.0128x    frame=  169 fps=0.7 q=47.0 size=       1kB time=00:00:03.29 bitrate=   1.8kbits/s speed=0.0129x    frame=  170 fps=0.7 q=47.0 size=       1kB time=00:00:03.33 bitrate=   1.8kbits/s speed=0.013x    frame=  171 fps=0.7 q=47.0 size=       1kB time=00:00:03.37 bitrate=   1.7kbits/s speed=0.013x    frame=  172 fps=0.7 q=47.0 size=       1kB time=00:00:03.41 bitrate=   1.7kbits/s speed=0.0131x    frame=  173 fps=0.6 q=47.0 size=       1kB time=00:00:03.45 bitrate=   1.7kbits/s speed=0.0129x    frame=  174 fps=0.6 q=47.0 size=       1kB time=00:00:03.50 bitrate=   1.7kbits/s speed=0.013x    frame=  175 fps=0.6 q=47.0 size=       1kB time=00:00:03.54 bitrate=   1.7kbits/s speed=0.013x    frame=  176 fps=0.6 q=47.0 size=       1kB time=00:00:03.58 bitrate=   1.6kbits/s speed=0.0131x    frame=  177 fps=0.6 q=47.0 size=       1kB time=00:00:03.62 bitrate=   1.6kbits/s speed=0.0131x    frame=  178 fps=0.6 q=47.0 size=       1kB time=00:00:03.66 bitrate=   1.6kbits/s speed=0.0132x    frame=  179 fps=0.6 q=47.0 size=       1kB time=00:00:03.70 bitrate=   1.6kbits/s speed=0.0131x    frame=  180 fps=0.6 q=47.0 size=       1kB time=00:00:03.75 bitrate=   1.6kbits/s speed=0.0132x    frame=  181 fps=0.6 q=47.0 size=       1kB time=00:00:03.79 bitrate=   1.6kbits/s speed=0.0133x    frame=  182 fps=0.6 q=47.0 size=       1kB time=00:00:03.83 bitrate=   1.5kbits/s speed=0.0133x    frame=  183 fps=0.6 q=47.0 size=       1kB time=00:00:03.87 bitrate=   1.5kbits/s speed=0.0133x    frame=  184 fps=0.6 q=47.0 size=       1kB time=00:00:03.91 bitrate=   1.5kbits/s speed=0.0134x    frame=  185 fps=0.6 q=47.0 size=       1kB time=00:00:03.95 bitrate=   1.5kbits/s speed=0.0133x    frame=  186 fps=0.6 q=47.0 size=       1kB time=00:00:04.00 bitrate=   1.5kbits/s speed=0.0134x    frame=  187 fps=0.6 q=47.0 size=       1kB time=00:00:04.04 bitrate=   1.5kbits/s speed=0.0134x    frame=  188 fps=0.6 q=47.0 size=       1kB time=00:00:04.08 bitrate=   1.4kbits/s speed=0.0135x    frame=  189 fps=0.6 q=47.0 size=       1kB time=00:00:04.12 bitrate=   1.4kbits/s speed=0.0135x    frame=  190 fps=0.6 q=47.0 size=       1kB time=00:00:04.16 bitrate=   1.4kbits/s speed=0.0136x    frame=  191 fps=0.6 q=47.0 size=       1kB time=00:00:04.20 bitrate=   1.4kbits/s speed=0.0136x    frame=  192 fps=0.6 q=47.0 size=       1kB time=00:00:04.25 bitrate=   1.4kbits/s speed=0.0137x    frame=  193 fps=0.6 q=47.0 size=       1kB time=00:00:04.29 bitrate=   1.4kbits/s speed=0.0136x    frame=  194 fps=0.6 q=47.0 size=       1kB time=00:00:04.33 bitrate=   1.4kbits/s speed=0.0137x    frame=  195 fps=0.6 q=47.0 size=       1kB time=00:00:04.37 bitrate=   1.3kbits/s speed=0.0137x    frame=  196 fps=0.6 q=47.0 size=       1kB time=00:00:04.41 bitrate=   1.3kbits/s speed=0.0138x    frame=  197 fps=0.6 q=47.0 size=       1kB time=00:00:04.45 bitrate=   1.3kbits/s speed=0.0138x    frame=  198 fps=0.6 q=46.0 size=       1kB time=00:00:04.50 bitrate=   1.3kbits/s speed=0.0139x    frame=  199 fps=0.6 q=47.0 size=       1kB time=00:00:04.54 bitrate=   1.3kbits/s speed=0.0138x    frame=  200 fps=0.6 q=46.0 size=       1kB time=00:00:04.58 bitrate=   1.3kbits/s speed=0.0139x    frame=  201 fps=0.6 q=46.0 size=       1kB time=00:00:04.62 bitrate=   1.3kbits/s speed=0.0139x    frame=  202 fps=0.6 q=46.0 size=       1kB time=00:00:04.66 bitrate=   1.3kbits/s speed=0.014x    frame=  203 fps=0.6 q=46.0 size=       1kB time=00:00:04.70 bitrate=   1.3kbits/s speed=0.014x    frame=  204 fps=0.6 q=46.0 size=       1kB time=00:00:04.75 bitrate=   1.2kbits/s speed=0.0138x    frame=  205 fps=0.6 q=46.0 size=       1kB time=00:00:04.79 bitrate=   1.2kbits/s speed=0.0139x    frame=  206 fps=0.6 q=46.0 size=       1kB time=00:00:04.83 bitrate=   1.2kbits/s speed=0.0139x    frame=  207 fps=0.6 q=46.0 size=       1kB time=00:00:04.87 bitrate=   1.2kbits/s speed=0.014x    frame=  208 fps=0.6 q=46.0 size=    2568kB time=00:00:04.91 bitrate=4277.5kbits/s speed=0.0141x    frame=  209 fps=0.6 q=46.0 size=    2568kB time=00:00:04.95 bitrate=4242.1kbits/s speed=0.0141x    frame=  210 fps=0.6 q=46.0 size=    2568kB time=00:00:05.00 bitrate=4206.5kbits/s speed=0.0141x    frame=  211 fps=0.6 q=46.0 size=    2568kB time=00:00:05.04 bitrate=4171.4kbits/s speed=0.014x    frame=  212 fps=0.6 q=46.0 size=    2568kB time=00:00:05.08 bitrate=4137.8kbits/s speed=0.014x    frame=  213 fps=0.6 q=46.0 size=    2568kB time=00:00:05.12 bitrate=4103.9kbits/s speed=0.0141x    frame=  214 fps=0.6 q=46.0 size=    2568kB time=00:00:05.16 bitrate=4070.5kbits/s speed=0.0141x    frame=  215 fps=0.6 q=46.0 size=    2568kB time=00:00:05.20 bitrate=4038.5kbits/s speed=0.0142x    frame=  216 fps=0.6 q=46.0 size=    2568kB time=00:00:05.25 bitrate=4006.2kbits/s speed=0.0142x    frame=  217 fps=0.6 q=46.0 size=    2568kB time=00:00:05.29 bitrate=3974.4kbits/s speed=0.014x    frame=  218 fps=0.6 q=46.0 size=    2568kB time=00:00:05.33 bitrate=3943.9kbits/s speed=0.0141x    frame=  219 fps=0.6 q=46.0 size=    2568kB time=00:00:05.37 bitrate=3913.0kbits/s speed=0.0141x    frame=  220 fps=0.6 q=46.0 size=    2568kB time=00:00:05.41 bitrate=3882.7kbits/s speed=0.0142x    frame=  221 fps=0.6 q=46.0 size=    2568kB time=00:00:05.45 bitrate=3853.5kbits/s speed=0.0142x    frame=  222 fps=0.6 q=46.0 size=    2568kB time=00:00:05.50 bitrate=3824.1kbits/s speed=0.0142x    frame=  223 fps=0.6 q=46.0 size=    2568kB time=00:00:05.54 bitrate=3795.2kbits/s speed=0.0142x    frame=  224 fps=0.6 q=46.0 size=    2568kB time=00:00:05.58 bitrate=3767.3kbits/s speed=0.0142x    frame=  225 fps=0.6 q=46.0 size=    2568kB time=00:00:05.62 bitrate=3739.2kbits/s speed=0.0142x    frame=  226 fps=0.6 q=46.0 size=    2568kB time=00:00:05.66 bitrate=3711.5kbits/s speed=0.0142x    frame=  227 fps=0.6 q=46.0 size=    2568kB time=00:00:05.70 bitrate=3684.8kbits/s speed=0.0142x    frame=  228 fps=0.6 q=46.0 size=    2568kB time=00:00:05.75 bitrate=3657.9kbits/s speed=0.0143x    frame=  229 fps=0.6 q=46.0 size=    2568kB time=00:00:05.79 bitrate=3631.4kbits/s speed=0.0143x    frame=  230 fps=0.6 q=46.0 size=    2568kB time=00:00:05.83 bitrate=3605.8kbits/s speed=0.0142x    frame=  231 fps=0.6 q=46.0 size=    2568kB time=00:00:05.87 bitrate=3580.1kbits/s speed=0.0143x    frame=  232 fps=0.6 q=46.0 size=    2568kB time=00:00:05.91 bitrate=3554.7kbits/s speed=0.0143x    frame=  233 fps=0.6 q=46.0 size=    2568kB time=00:00:05.95 bitrate=3530.2kbits/s speed=0.0143x    frame=  234 fps=0.6 q=46.0 size=    2568kB time=00:00:06.00 bitrate=3505.5kbits/s speed=0.0143x    frame=  235 fps=0.6 q=46.0 size=    2568kB time=00:00:06.04 bitrate=3481.1kbits/s speed=0.0143x    frame=  236 fps=0.6 q=46.0 size=    2568kB time=00:00:06.08 bitrate=3457.7kbits/s speed=0.0143x    frame=  237 fps=0.6 q=46.0 size=    2568kB time=00:00:06.12 bitrate=3434.0kbits/s speed=0.0144x    frame=  238 fps=0.6 q=46.0 size=    2568kB time=00:00:06.16 bitrate=3410.6kbits/s speed=0.0144x    frame=  239 fps=0.6 q=46.0 size=    2568kB time=00:00:06.20 bitrate=3388.1kbits/s speed=0.0144x    frame=  240 fps=0.6 q=46.0 size=    2568kB time=00:00:06.25 bitrate=3365.3kbits/s speed=0.0145x    frame=  241 fps=0.6 q=46.0 size=    2568kB time=00:00:06.29 bitrate=3342.8kbits/s speed=0.0145x    frame=  242 fps=0.6 q=46.0 size=    2568kB time=00:00:06.33 bitrate=3321.2kbits/s speed=0.0146x    frame=  244 fps=0.6 q=46.0 size=    2568kB time=00:00:06.41 bitrate=3277.7kbits/s speed=0.0147x    frame=  245 fps=0.5 q=46.0 size=    2568kB time=00:00:06.45 bitrate=3256.9kbits/s speed=0.0144x    frame=  246 fps=0.5 q=46.0 size=    2568kB time=00:00:06.50 bitrate=3235.9kbits/s speed=0.0145x    frame=  247 fps=0.5 q=46.0 size=    2568kB time=00:00:06.54 bitrate=3215.1kbits/s speed=0.0145x    frame=  248 fps=0.5 q=46.0 size=    2568kB time=00:00:06.58 bitrate=3195.1kbits/s speed=0.0146x    frame=  249 fps=0.5 q=46.0 size=    2568kB time=00:00:06.62 bitrate=3174.8kbits/s speed=0.0146x    frame=  250 fps=0.5 q=46.0 size=    2568kB time=00:00:06.66 bitrate=3154.8kbits/s speed=0.0146x    frame=  251 fps=0.5 q=46.0 size=    2568kB time=00:00:06.70 bitrate=3135.6kbits/s speed=0.0145x    frame=  252 fps=0.5 q=46.0 size=    2568kB time=00:00:06.75 bitrate=3116.1kbits/s speed=0.0145x    frame=  253 fps=0.5 q=46.0 size=    2568kB time=00:00:06.79 bitrate=3096.8kbits/s speed=0.0146x    frame=  254 fps=0.5 q=46.0 size=    2568kB time=00:00:06.83 bitrate=3078.2kbits/s speed=0.0146x    frame=  255 fps=0.5 q=46.0 size=    2568kB time=00:00:06.87 bitrate=3059.4kbits/s speed=0.0146x    frame=  256 fps=0.5 q=46.0 size=    2568kB time=00:00:06.91 bitrate=3040.8kbits/s speed=0.0147x    frame=  257 fps=0.5 q=46.0 size=    2568kB time=00:00:06.95 bitrate=3022.9kbits/s speed=0.0146x    frame=  258 fps=0.5 q=46.0 size=    2568kB time=00:00:07.00 bitrate=3004.8kbits/s speed=0.0146x    frame=  259 fps=0.5 q=46.0 size=    2568kB time=00:00:07.04 bitrate=2986.9kbits/s speed=0.0146x    frame=  260 fps=0.5 q=46.0 size=    2568kB time=00:00:07.08 bitrate=2969.6kbits/s speed=0.0146x    frame=  261 fps=0.5 q=46.0 size=    2568kB time=00:00:07.12 bitrate=2952.1kbits/s speed=0.0147x    frame=  262 fps=0.5 q=46.0 size=    2568kB time=00:00:07.16 bitrate=2934.8kbits/s speed=0.0147x    frame=  263 fps=0.5 q=46.0 size=    2568kB time=00:00:07.20 bitrate=2918.1kbits/s speed=0.0146x    frame=  264 fps=0.5 q=46.0 size=    2568kB time=00:00:07.25 bitrate=2901.2kbits/s speed=0.0146x    frame=  265 fps=0.5 q=46.0 size=    2568kB time=00:00:07.29 bitrate=2884.5kbits/s speed=0.0146x    frame=  266 fps=0.5 q=46.0 size=    2568kB time=00:00:07.33 bitrate=2868.4kbits/s speed=0.0146x    frame=  267 fps=0.5 q=46.0 size=    2568kB time=00:00:07.37 bitrate=2852.0kbits/s speed=0.0147x    frame=  268 fps=0.5 q=46.0 size=    2568kB time=00:00:07.41 bitrate=2835.9kbits/s speed=0.0147x    frame=  269 fps=0.5 q=46.0 size=    2568kB time=00:00:07.45 bitrate=2820.3kbits/s speed=0.0147x    frame=  270 fps=0.5 q=46.0 size=    2568kB time=00:00:07.50 bitrate=2804.5kbits/s speed=0.0147x    frame=  271 fps=0.5 q=46.0 size=    2568kB time=00:00:07.54 bitrate=2788.9kbits/s speed=0.0147x    frame=  272 fps=0.5 q=46.0 size=    2568kB time=00:00:07.58 bitrate=2773.8kbits/s speed=0.0146x    frame=  273 fps=0.5 q=46.0 size=    2568kB time=00:00:07.62 bitrate=2758.5kbits/s speed=0.0147x    frame=  274 fps=0.5 q=46.0 size=    2568kB time=00:00:07.66 bitrate=2743.4kbits/s speed=0.0147x    frame=  276 fps=0.5 q=45.0 size=    2568kB time=00:00:07.75 bitrate=2714.0kbits/s speed=0.0148x    frame=  277 fps=0.5 q=45.0 size=    2568kB time=00:00:07.79 bitrate=2699.4kbits/s speed=0.0148x    frame=  278 fps=0.5 q=45.0 size=    2568kB time=00:00:07.83 bitrate=2685.3kbits/s speed=0.0149x    frame=  279 fps=0.5 q=45.0 size=    2568kB time=00:00:07.87 bitrate=2671.0kbits/s speed=0.0148x    frame=  280 fps=0.5 q=45.0 size=    2568kB time=00:00:07.91 bitrate=2656.8kbits/s speed=0.0148x    frame=  281 fps=0.5 q=45.0 size=    2568kB time=00:00:07.95 bitrate=2643.1kbits/s speed=0.0149x    frame=  282 fps=0.5 q=45.0 size=    2568kB time=00:00:08.00 bitrate=2629.2kbits/s speed=0.0149x    frame=  283 fps=0.5 q=45.0 size=    2568kB time=00:00:08.04 bitrate=2615.5kbits/s speed=0.0149x    frame=  284 fps=0.5 q=45.0 size=    2568kB time=00:00:08.08 bitrate=2602.2kbits/s speed=0.015x    frame=  285 fps=0.5 q=45.0 size=    2568kB time=00:00:08.12 bitrate=2588.8kbits/s speed=0.0148x    frame=  286 fps=0.5 q=45.0 size=    2568kB time=00:00:08.16 bitrate=2575.5kbits/s speed=0.0149x    frame=  287 fps=0.5 q=45.0 size=    2568kB time=00:00:08.20 bitrate=2562.6kbits/s speed=0.0149x    frame=  288 fps=0.5 q=45.0 size=    2568kB time=00:00:08.25 bitrate=2549.6kbits/s speed=0.0149x    frame=  289 fps=0.5 q=45.0 size=    2568kB time=00:00:08.29 bitrate=2536.7kbits/s speed=0.0149x    frame=  290 fps=0.5 q=45.0 size=    2568kB time=00:00:08.33 bitrate=2524.2kbits/s speed=0.0149x    frame=  291 fps=0.5 q=45.0 size=    2568kB time=00:00:08.37 bitrate=2511.5kbits/s speed=0.0149x    frame=  292 fps=0.5 q=45.0 size=    2568kB time=00:00:08.41 bitrate=2499.0kbits/s speed=0.0149x    frame=  293 fps=0.5 q=45.0 size=    2568kB time=00:00:08.45 bitrate=2486.9kbits/s speed=0.0149x    frame=  294 fps=0.5 q=45.0 size=    2568kB time=00:00:08.50 bitrate=2474.6kbits/s speed=0.0149x    frame=  295 fps=0.5 q=45.0 size=    2568kB time=00:00:08.54 bitrate=2462.4kbits/s speed=0.015x    frame=  296 fps=0.5 q=45.0 size=    2568kB time=00:00:08.58 bitrate=2450.7kbits/s speed=0.015x    frame=  297 fps=0.5 q=45.0 size=    2568kB time=00:00:08.62 bitrate=2438.7kbits/s speed=0.0149x    frame=  298 fps=0.5 q=45.0 size=    2568kB time=00:00:08.66 bitrate=2426.9kbits/s speed=0.015x    frame=  299 fps=0.5 q=45.0 size=    2568kB time=00:00:08.70 bitrate=2415.5kbits/s speed=0.015x    frame=  300 fps=0.5 q=45.0 size=    2568kB time=00:00:08.75 bitrate=2403.9kbits/s speed=0.015x    frame=  301 fps=0.5 q=45.0 size=    2568kB time=00:00:08.79 bitrate=2392.4kbits/s speed=0.015x    frame=  302 fps=0.5 q=45.0 size=    2568kB time=00:00:08.83 bitrate=2381.3kbits/s speed=0.015x    frame=  303 fps=0.5 q=45.0 size=    2568kB time=00:00:08.87 bitrate=2370.0kbits/s speed=0.0151x    frame=  304 fps=0.5 q=45.0 size=    2568kB time=00:00:08.91 bitrate=2358.9kbits/s speed=0.0151x    frame=  305 fps=0.5 q=45.0 size=    2568kB time=00:00:08.95 bitrate=2348.1kbits/s speed=0.015x    frame=  306 fps=0.5 q=45.0 size=    2568kB time=00:00:09.00 bitrate=2337.1kbits/s speed=0.0151x    frame=  307 fps=0.5 q=45.0 size=    2568kB time=00:00:09.04 bitrate=2326.3kbits/s speed=0.0151x    frame=  308 fps=0.5 q=45.0 size=    2568kB time=00:00:09.08 bitrate=2315.8kbits/s speed=0.0151x    frame=  309 fps=0.5 q=45.0 size=    2568kB time=00:00:09.12 bitrate=2305.1kbits/s speed=0.0152x    frame=  310 fps=0.5 q=45.0 size=    2568kB time=00:00:09.16 bitrate=2294.6kbits/s speed=0.0151x    frame=  311 fps=0.5 q=45.0 size=    2568kB time=00:00:09.20 bitrate=2284.3kbits/s speed=0.0152x    frame=  312 fps=0.5 q=45.0 size=    2568kB time=00:00:09.25 bitrate=2274.0kbits/s speed=0.0152x    frame=  314 fps=0.5 q=45.0 size=    2568kB time=00:00:09.33 bitrate=2253.8kbits/s speed=0.0151x    frame=  315 fps=0.5 q=45.0 size=    2568kB time=00:00:09.37 bitrate=2243.7kbits/s speed=0.0152x    frame=  316 fps=0.5 q=45.0 size=    2568kB time=00:00:09.41 bitrate=2233.7kbits/s speed=0.0152x    frame=  319 fps=0.5 q=45.0 size=    2568kB time=00:00:09.54 bitrate=2204.4kbits/s speed=0.0154x    frame=  320 fps=0.5 q=44.0 size=    2568kB time=00:00:09.58 bitrate=2195.0kbits/s speed=0.0154x    frame=  321 fps=0.5 q=44.0 size=    2568kB time=00:00:09.62 bitrate=2185.4kbits/s speed=0.0153x    frame=  322 fps=0.5 q=44.0 size=    2568kB time=00:00:09.66 bitrate=2175.9kbits/s speed=0.0153x    frame=  323 fps=0.5 q=44.0 size=    2568kB time=00:00:09.70 bitrate=2166.7kbits/s speed=0.0153x    frame=  324 fps=0.5 q=44.0 size=    2568kB time=00:00:09.75 bitrate=2157.4kbits/s speed=0.0154x    frame=  325 fps=0.5 q=44.0 size=    2568kB time=00:00:09.79 bitrate=2148.1kbits/s speed=0.0154x    frame=  326 fps=0.5 q=44.0 size=    2568kB time=00:00:09.83 bitrate=2139.2kbits/s speed=0.0155x    frame=  327 fps=0.5 q=44.0 size=    2568kB time=00:00:09.87 bitrate=2130.1kbits/s speed=0.0155x    frame=  328 fps=0.5 q=44.0 size=    2568kB time=00:00:09.91 bitrate=2121.0kbits/s speed=0.0153x    frame=  329 fps=0.5 q=44.0 size=    4622kB time=00:00:09.95 bitrate=3802.1kbits/s speed=0.0154x    frame=  330 fps=0.5 q=44.0 size=    4622kB time=00:00:10.00 bitrate=3786.1kbits/s speed=0.0154x    frame=  331 fps=0.5 q=44.0 size=    4622kB time=00:00:10.04 bitrate=3770.3kbits/s speed=0.0154x    frame=  332 fps=0.5 q=44.0 size=    4622kB time=00:00:10.08 bitrate=3754.9kbits/s speed=0.0155x    frame=  333 fps=0.5 q=42.0 size=    4622kB time=00:00:10.12 bitrate=3739.4kbits/s speed=0.0155x    frame=  334 fps=0.5 q=44.0 size=    4622kB time=00:00:10.16 bitrate=3723.9kbits/s speed=0.0154x    frame=  335 fps=0.5 q=44.0 size=    4622kB time=00:00:10.20 bitrate=3709.0kbits/s speed=0.0154x    frame=  336 fps=0.5 q=44.0 size=    4622kB time=00:00:10.25 bitrate=3693.8kbits/s speed=0.0155x    frame=  337 fps=0.5 q=44.0 size=    4622kB time=00:00:10.29 bitrate=3678.7kbits/s speed=0.0155x    frame=  338 fps=0.5 q=44.0 size=    4763kB time=00:00:10.33 bitrate=3775.5kbits/s speed=0.0155x    frame=  344 fps=0.5 q=44.0 size=    4763kB time=00:00:10.58 bitrate=3686.3kbits/s speed=0.0158x    frame=  346 fps=0.5 q=44.0 size=    4763kB time=00:00:10.66 bitrate=3657.3kbits/s speed=0.0159x    frame=  347 fps=0.5 q=44.0 size=    4763kB time=00:00:10.70 bitrate=3643.3kbits/s speed=0.016x    frame=  349 fps=0.5 q=44.0 size=    4763kB time=00:00:10.79 bitrate=3614.9kbits/s speed=0.016x    frame=  351 fps=0.5 q=44.0 size=    4763kB time=00:00:10.87 bitrate=3587.3kbits/s speed=0.0161x    frame=  353 fps=0.5 q=44.0 size=    4763kB time=00:00:10.95 bitrate=3560.2kbits/s speed=0.0162x    frame=  355 fps=0.5 q=44.0 size=    4763kB time=00:00:11.04 bitrate=3533.1kbits/s speed=0.0162x    frame=  357 fps=0.5 q=44.0 size=    4763kB time=00:00:11.12 bitrate=3506.7kbits/s speed=0.0163x    frame=  358 fps=0.5 q=44.0 size=    4763kB time=00:00:11.16 bitrate=3493.5kbits/s speed=0.0163x    frame=  360 fps=0.5 q=44.0 size=    4763kB time=00:00:11.25 bitrate=3467.8kbits/s speed=0.0164x    frame=  361 fps=0.5 q=44.0 size=    4763kB time=00:00:11.29 bitrate=3454.9kbits/s speed=0.0163x    frame=  362 fps=0.5 q=43.0 size=    4763kB time=00:00:11.33 bitrate=3442.4kbits/s speed=0.0164x    frame=  363 fps=0.5 q=43.0 size=    4763kB time=00:00:11.37 bitrate=3429.7kbits/s speed=0.0164x    frame=  365 fps=0.5 q=43.0 size=    4763kB time=00:00:11.45 bitrate=3404.8kbits/s speed=0.0164x    frame=  366 fps=0.5 q=43.0 size=    4763kB time=00:00:11.50 bitrate=3392.4kbits/s speed=0.0165x    frame=  367 fps=0.5 q=43.0 size=    4763kB time=00:00:11.54 bitrate=3380.0kbits/s speed=0.0165x    frame=  369 fps=0.5 q=43.0 size=    4763kB time=00:00:11.62 bitrate=3355.9kbits/s speed=0.0165x    frame=  371 fps=0.5 q=43.0 size=    4763kB time=00:00:11.70 bitrate=3332.1kbits/s speed=0.0166x    frame=  372 fps=0.5 q=43.0 size=    4763kB time=00:00:11.75 bitrate=3320.2kbits/s speed=0.0165x    frame=  373 fps=0.5 q=43.0 size=    4763kB time=00:00:11.79 bitrate=3308.4kbits/s speed=0.0166x    frame=  374 fps=0.5 q=43.0 size=    4763kB time=00:00:11.83 bitrate=3296.9kbits/s speed=0.0166x    frame=  376 fps=0.5 q=43.0 size=    4763kB time=00:00:11.91 bitrate=3273.7kbits/s speed=0.0166x    frame=  377 fps=0.5 q=43.0 size=    4763kB time=00:00:11.95 bitrate=3262.5kbits/s speed=0.0166x    frame=  378 fps=0.5 q=43.0 size=    4763kB time=00:00:12.00 bitrate=3251.1kbits/s speed=0.0167x    frame=  380 fps=0.5 q=43.0 size=    4763kB time=00:00:12.08 bitrate=3228.7kbits/s speed=0.0167x    frame=  381 fps=0.5 q=43.0 size=    4763kB time=00:00:12.12 bitrate=3217.5kbits/s speed=0.0167x    frame=  382 fps=0.5 q=43.0 size=    4763kB time=00:00:12.16 bitrate=3206.4kbits/s speed=0.0168x    frame=  385 fps=0.5 q=43.0 size=    4763kB time=00:00:12.29 bitrate=3173.8kbits/s speed=0.0168x    frame=  387 fps=0.5 q=43.0 size=    4763kB time=00:00:12.37 bitrate=3152.5kbits/s speed=0.0169x    frame=  388 fps=0.5 q=43.0 size=    4763kB time=00:00:12.41 bitrate=3141.9kbits/s speed=0.0169x    frame=  389 fps=0.5 q=43.0 size=    4763kB time=00:00:12.45 bitrate=3131.5kbits/s speed=0.0169x    frame=  390 fps=0.5 q=43.0 size=    4763kB time=00:00:12.50 bitrate=3121.0kbits/s speed=0.017x    frame=  394 fps=0.5 q=42.0 size=    4763kB time=00:00:12.66 bitrate=3079.9kbits/s speed=0.017x    frame=  396 fps=0.5 q=42.0 size=    4763kB time=00:00:12.75 bitrate=3059.8kbits/s speed=0.0171x    frame=  400 fps=0.5 q=42.0 size=    4763kB time=00:00:12.91 bitrate=3020.3kbits/s speed=0.0171x    frame=  402 fps=0.5 q=42.0 size=    4763kB time=00:00:13.00 bitrate=3001.0kbits/s speed=0.0172x    frame=  406 fps=0.5 q=42.0 size=    4763kB time=00:00:13.16 bitrate=2962.9kbits/s speed=0.0172x    frame=  408 fps=0.5 q=42.0 size=    4763kB time=00:00:13.25 bitrate=2944.4kbits/s speed=0.0173x    frame=  411 fps=0.5 q=42.0 size=    4763kB time=00:00:13.37 bitrate=2916.9kbits/s speed=0.0174x    frame=  412 fps=0.5 q=42.0 size=    4763kB time=00:00:13.41 bitrate=2907.7kbits/s speed=0.0174x    frame=  416 fps=0.5 q=41.0 size=    4763kB time=00:00:13.58 bitrate=2872.2kbits/s speed=0.0175x    frame=  418 fps=0.5 q=41.0 size=    4763kB time=00:00:13.66 bitrate=2854.5kbits/s speed=0.0175x    frame=  421 fps=0.5 q=41.0 size=    4763kB time=00:00:13.79 bitrate=2828.7kbits/s speed=0.0176x    frame=  422 fps=0.5 q=41.0 size=    4763kB time=00:00:13.83 bitrate=2820.3kbits/s speed=0.0176x    frame=  425 fps=0.5 q=41.0 size=    4763kB time=00:00:13.95 bitrate=2795.0kbits/s speed=0.0178x    frame=  426 fps=0.5 q=41.0 size=    4763kB time=00:00:14.00 bitrate=2786.6kbits/s speed=0.0177x    frame=  428 fps=0.5 q=41.0 size=    4763kB time=00:00:14.08 bitrate=2770.2kbits/s speed=0.0178x    frame=  432 fps=0.5 q=40.0 size=    4763kB time=00:00:14.25 bitrate=2737.8kbits/s speed=0.0178x    frame=  433 fps=0.5 q=41.0 size=    4763kB time=00:00:14.29 bitrate=2729.7kbits/s speed=0.0178x    frame=  438 fps=0.5 q=40.0 size=    4763kB time=00:00:14.50 bitrate=2690.6kbits/s speed=0.0179x    frame=  440 fps=0.5 q=40.0 size=    4763kB time=00:00:14.58 bitrate=2675.3kbits/s speed=0.018x    frame=  444 fps=0.5 q=40.0 size=    4763kB time=00:00:14.75 bitrate=2645.0kbits/s speed=0.018x    frame=  445 fps=0.5 q=40.0 size=    4763kB time=00:00:14.79 bitrate=2637.5kbits/s speed=0.0181x    frame=  447 fps=0.5 q=40.0 size=    4763kB time=00:00:14.87 bitrate=2622.7kbits/s speed=0.0182x    frame=  448 fps=0.5 q=40.0 size=    4763kB time=00:00:14.91 bitrate=2615.4kbits/s speed=0.018x    frame=  449 fps=0.5 q=40.0 size=    4763kB time=00:00:14.95 bitrate=2608.2kbits/s speed=0.018x    frame=  451 fps=0.5 q=40.0 size=    4763kB time=00:00:15.04 bitrate=2593.6kbits/s speed=0.0181x    frame=  452 fps=0.5 q=40.0 size=    4763kB time=00:00:15.08 bitrate=2586.6kbits/s speed=0.0181x    frame=  453 fps=0.5 q=40.0 size=    4763kB time=00:00:15.12 bitrate=2579.4kbits/s speed=0.0182x    frame=  454 fps=0.5 q=40.0 size=    4763kB time=00:00:15.16 bitrate=2572.2kbits/s speed=0.0181x    frame=  455 fps=0.5 q=40.0 size=    4763kB time=00:00:15.20 bitrate=2565.3kbits/s speed=0.018x    frame=  456 fps=0.5 q=40.0 size=    4763kB time=00:00:15.25 bitrate=2558.2kbits/s speed=0.0181x    frame=  457 fps=0.5 q=40.0 size=    4763kB time=00:00:15.29 bitrate=2551.2kbits/s speed=0.0181x    frame=  458 fps=0.5 q=40.0 size=    6218kB time=00:00:15.33 bitrate=3321.7kbits/s speed=0.0181x    frame=  459 fps=0.5 q=40.0 size=    6218kB time=00:00:15.37 bitrate=3312.7kbits/s speed=0.0181x    frame=  460 fps=0.5 q=40.0 size=    6218kB time=00:00:15.41 bitrate=3303.7kbits/s speed=0.0181x    frame=  461 fps=0.5 q=40.0 size=    6218kB time=00:00:15.45 bitrate=3294.9kbits/s speed=0.0181x    frame=  462 fps=0.5 q=40.0 size=    6218kB time=00:00:15.50 bitrate=3286.0kbits/s speed=0.0182x    frame=  463 fps=0.5 q=40.0 size=    6218kB time=00:00:15.54 bitrate=3277.1kbits/s speed=0.0181x    frame=  464 fps=0.5 q=40.0 size=    6218kB time=00:00:15.58 bitrate=3268.5kbits/s speed=0.0181x    frame=  465 fps=0.5 q=40.0 size=    6218kB time=00:00:15.62 bitrate=3259.7kbits/s speed=0.0181x    frame=  467 fps=0.5 q=40.0 size=    6218kB time=00:00:15.70 bitrate=3242.5kbits/s speed=0.0182x    frame=  468 fps=0.5 q=40.0 size=    6218kB time=00:00:15.75 bitrate=3233.8kbits/s speed=0.0182x    frame=  469 fps=0.5 q=40.0 size=    6218kB time=00:00:15.79 bitrate=3225.2kbits/s speed=0.0182x    frame=  470 fps=0.5 q=39.0 size=    6218kB time=00:00:15.83 bitrate=3216.9kbits/s speed=0.0181x    frame=  471 fps=0.5 q=39.0 size=    6218kB time=00:00:15.87 bitrate=3208.3kbits/s speed=0.0181x    frame=  472 fps=0.5 q=39.0 size=    6218kB time=00:00:15.91 bitrate=3199.9kbits/s speed=0.0182x    frame=  476 fps=0.5 q=39.0 size=    6218kB time=00:00:16.08 bitrate=3166.9kbits/s speed=0.0181x    frame=  477 fps=0.5 q=39.0 size=    6218kB time=00:00:16.12 bitrate=3158.6kbits/s speed=0.0182x    frame=  478 fps=0.5 q=39.0 size=    6218kB time=00:00:16.16 bitrate=3150.4kbits/s speed=0.0182x    frame=  479 fps=0.5 q=39.0 size=    6218kB time=00:00:16.20 bitrate=3142.4kbits/s speed=0.0182x    frame=  480 fps=0.5 q=39.0 size=    6218kB time=00:00:16.25 bitrate=3134.3kbits/s speed=0.0182x    frame=  481 fps=0.5 q=39.0 size=    6218kB time=00:00:16.29 bitrate=3126.2kbits/s speed=0.0182x    frame=  482 fps=0.5 q=39.0 size=    6218kB time=00:00:16.33 bitrate=3118.4kbits/s speed=0.0183x    frame=  483 fps=0.5 q=39.0 size=    6218kB time=00:00:16.37 bitrate=3110.4kbits/s speed=0.0181x    frame=  484 fps=0.5 q=39.0 size=    6218kB time=00:00:16.41 bitrate=3102.4kbits/s speed=0.0181x    frame=  485 fps=0.5 q=39.0 size=    6218kB time=00:00:16.45 bitrate=3094.7kbits/s speed=0.0182x    frame=  487 fps=0.5 q=39.0 size=    6218kB time=00:00:16.54 bitrate=3079.0kbits/s speed=0.0182x    frame=  488 fps=0.5 q=39.0 size=    6218kB time=00:00:16.58 bitrate=3071.4kbits/s speed=0.0182x    frame=  489 fps=0.5 q=39.0 size=    6218kB time=00:00:16.62 bitrate=3063.6kbits/s speed=0.0182x    frame=  490 fps=0.5 q=39.0 size=    6218kB time=00:00:16.66 bitrate=3055.9kbits/s speed=0.0181x    frame=  491 fps=0.5 q=39.0 size=    6218kB time=00:00:16.70 bitrate=3048.4kbits/s speed=0.0181x    frame=  492 fps=0.5 q=39.0 size=    6218kB time=00:00:16.75 bitrate=3040.8kbits/s speed=0.0181x    frame=  493 fps=0.5 q=39.0 size=    6218kB time=00:00:16.79 bitrate=3033.2kbits/s speed=0.0181x    frame=  494 fps=0.5 q=39.0 size=    6218kB time=00:00:16.83 bitrate=3025.8kbits/s speed=0.0181x    frame=  495 fps=0.5 q=39.0 size=    6218kB time=00:00:16.87 bitrate=3018.2kbits/s speed=0.0182x    frame=  496 fps=0.5 q=39.0 size=    6218kB time=00:00:16.91 bitrate=3010.7kbits/s speed=0.0182x    frame=  497 fps=0.5 q=39.0 size=    6218kB time=00:00:16.95 bitrate=3003.5kbits/s speed=0.0181x    frame=  498 fps=0.5 q=39.0 size=    6218kB time=00:00:17.00 bitrate=2996.0kbits/s speed=0.0181x    frame=  499 fps=0.5 q=39.0 size=    6218kB time=00:00:17.04 bitrate=2988.7kbits/s speed=0.0181x    frame=  500 fps=0.5 q=39.0 size=    6218kB time=00:00:17.08 bitrate=2981.5kbits/s speed=0.0181x    frame=  500 fps=0.5 q=-1.0 Lsize=    8410kB time=00:00:20.70 bitrate=3326.8kbits/s speed=0.0187x    
video:8405kB audio:0kB subtitle:0kB other streams:0kB global headers:0kB muxing overhead: 0.053723%
bench: utime=4108.976s
bench: maxrss=4180512kB
[libx264 @ 0x40231c0] frame I:3     Avg QP:33.52  size: 92454
[libx264 @ 0x40231c0] frame P:267   Avg QP:42.24  size: 22378
[libx264 @ 0x40231c0] frame B:230   Avg QP:41.43  size: 10235
[libx264 @ 0x40231c0] consecutive B-frames: 34.8% 13.6% 12.0% 16.0% 14.0%  9.6%  0.0%  0.0%  0.0%  0.0%  0.0%  0.0%  0.0%  0.0%  0.0%  0.0%  0.0%
[libx264 @ 0x40231c0] mb I  I16..4: 26.4% 62.8% 10.9%
[libx264 @ 0x40231c0] mb P  I16..4:  6.5% 11.4% 19.3%  P16..4: 20.8%  6.5%  0.7%  0.0%  0.0%    skip:34.8%
[libx264 @ 0x40231c0] mb B  I16..4:  0.7%  0.8%  0.6%  B16..8: 25.7%  2.8%  0.2%  direct: 0.2%  skip:69.1%  L0:38.9% L1:60.1% BI: 1.0%
[libx264 @ 0x40231c0] final ratefactor: 36.80
[libx264 @ 0x40231c0] 8x8 transform intra:31.8% inter:86.5%
[libx264 @ 0x40231c0] direct mvs  spatial:98.7% temporal:1.3%
[libx264 @ 0x40231c0] coded y,uvDC,uvAC intra: 5.8% 8.9% 0.1% inter: 0.8% 1.0% 0.0%
[libx264 @ 0x40231c0] i16 v,h,dc,p:  7% 19%  3% 71%
[libx264 @ 0x40231c0] i8 v,h,dc,ddl,ddr,vr,hd,vl,hu: 19%  5% 61%  2%  2%  2%  3%  2%  4%
[libx264 @ 0x40231c0] i4 v,h,dc,ddl,ddr,vr,hd,vl,hu:  7%  2% 91%  0%  0%  0%  0%  0%  0%
[libx264 @ 0x40231c0] i8c dc,h,v,p: 55% 36%  4%  5%
[libx264 @ 0x40231c0] Weighted P-Frames: Y:3.0% UV:2.6%
[libx264 @ 0x40231c0] ref P L0: 39.8% 23.1% 15.8%  4.9%  3.5%  2.8%  2.6%  1.3%  1.2%  1.0%  0.9%  0.8%  0.7%  0.7%  0.6%  0.4%
[libx264 @ 0x40231c0] ref B L0: 89.7%  4.7%  2.1%  0.8%  0.6%  0.5%  0.4%  0.3%  0.2%  0.2%  0.2%  0.1%  0.1%  0.1%  0.1%
[libx264 @ 0x40231c0] ref B L1: 98.6%  1.4%
[libx264 @ 0x40231c0] kb/s:3304.87
